<svg width="53" height="65" viewBox="0 0 53 65" fill="none" xmlns="http://www.w3.org/2000/svg">
<path d="M51.12 43.1288C51.551 42.6993 51.8412 42.1489 51.9521 41.5506C52.063 40.9523 51.9893 40.3345 51.7409 39.779C51.4924 39.2236 51.081 38.7568 50.5611 38.4407C50.0412 38.1245 49.4375 37.9739 48.83 38.0089H33V30.0089H23.47C22.7269 30.0083 21.9983 30.2148 21.366 30.6052C20.7336 30.9955 20.2225 31.5543 19.89 32.2189L19.11 33.7989C18.7775 34.4634 18.2664 35.0222 17.634 35.4125C17.0017 35.8029 16.2731 36.0094 15.53 36.0089H13V62.0089H43.83C44.6191 62.0223 45.3842 61.7372 45.972 61.2106C46.5598 60.6839 46.927 59.9547 47 59.1689C47.0218 58.7616 46.9602 58.3543 46.8193 57.9716C46.6783 57.589 46.4607 57.2391 46.18 56.9433C45.8992 56.6476 45.5611 56.4122 45.1862 56.2515C44.8114 56.0908 44.4078 56.0083 44 56.0089H46C46.7957 56.0089 47.5587 55.6928 48.1213 55.1302C48.6839 54.5676 49 53.8045 49 53.0089C49 52.2132 48.6839 51.4501 48.1213 50.8875C47.5587 50.3249 46.7957 50.0089 46 50.0089H48C48.7957 50.0089 49.5587 49.6928 50.1213 49.1302C50.6839 48.5676 51 47.8045 51 47.0089C51 46.2132 50.6839 45.4501 50.1213 44.8875C49.5587 44.3249 48.7957 44.0089 48 44.0089C49.19 44.0089 50.14 44.1089 51.12 43.1288Z" fill="#FFAC00"/>
<path d="M11 32.0089H2C0.89543 32.0089 0 32.9043 0 34.0089V62.0089C0 63.1134 0.89543 64.0089 2 64.0089H11C12.1046 64.0089 13 63.1134 13 62.0089V34.0089C13 32.9043 12.1046 32.0089 11 32.0089Z" fill="#00BEBD"/>
<path d="M21.5399 8.84883C19.7016 10.0397 18.2982 11.7939 17.5399 13.8488L16.9799 15.3588C16.9099 15.5519 16.7821 15.7187 16.6139 15.8365C16.4457 15.9544 16.2453 16.0177 16.0399 16.0177C15.8346 16.0177 15.6342 15.9544 15.466 15.8365C15.2978 15.7187 15.17 15.5519 15.0999 15.3588L14.5399 13.8488C13.7816 11.7939 12.3783 10.0397 10.5399 8.84883C10.3996 8.75817 10.2842 8.63379 10.2043 8.48706C10.1244 8.34032 10.0825 8.17591 10.0825 8.00883C10.0825 7.84174 10.1244 7.67733 10.2043 7.53059C10.2842 7.38386 10.3996 7.25948 10.5399 7.16883C12.3783 5.97794 13.7816 4.22378 14.5399 2.16883L15.0599 0.658826C15.13 0.465775 15.2578 0.298979 15.426 0.181106C15.5942 0.0632332 15.7946 0 15.9999 0C16.2053 0 16.4057 0.0632332 16.5739 0.181106C16.7421 0.298979 16.8699 0.465775 16.9399 0.658826L17.4999 2.16883C18.2582 4.22378 19.6616 5.97794 21.4999 7.16883C21.6425 7.25609 21.7609 7.3777 21.8444 7.52254C21.9278 7.66738 21.9736 7.83082 21.9776 7.99793C21.9816 8.16504 21.9436 8.33047 21.8671 8.47912C21.7907 8.62777 21.6782 8.75487 21.5399 8.84883Z" fill="#FFAC00"/>
<path d="M44.9999 1.47882V10.7688C44.9997 11.1409 44.8957 11.5056 44.6997 11.8218C44.5036 12.138 44.2231 12.3932 43.8899 12.5588L39.8899 14.5588C39.6134 14.6962 39.3087 14.7678 38.9999 14.7678C38.6911 14.7678 38.3865 14.6962 38.1099 14.5588L34.1099 12.5588C33.7767 12.3932 33.4963 12.138 33.3002 11.8218C33.1041 11.5056 33.0001 11.1409 32.9999 10.7688V1.47882C30.9724 2.5376 29.2602 4.11258 28.0361 6.04473C26.8119 7.97688 26.1192 10.1978 26.0279 12.4833C25.9366 14.7688 26.45 17.0379 27.5161 19.0615C28.5822 21.0852 30.1634 22.7917 32.0999 24.0088C32.375 24.19 32.6012 24.4363 32.7582 24.7259C32.9152 25.0155 32.9982 25.3394 32.9999 25.6688V38.0088H44.9999V25.6788C45 25.3477 45.0822 25.0218 45.2393 24.7303C45.3964 24.4388 45.6234 24.1909 45.8999 24.0088C47.8365 22.7917 49.4177 21.0852 50.4838 19.0615C51.5499 17.0379 52.0632 14.7688 51.9719 12.4833C51.8806 10.1978 51.1879 7.97688 49.9638 6.04473C48.7397 4.11258 47.0274 2.5376 44.9999 1.47882Z" fill="#00BEBD"/>
<path d="M31 30.0089V36.0089H28C27.7348 36.0089 27.4804 36.1142 27.2929 36.3017C27.1054 36.4893 27 36.7436 27 37.0089C27 37.2741 27.1054 37.5284 27.2929 37.716C27.4804 37.9035 27.7348 38.0089 28 38.0089H33V30.0089H31Z" fill="#EA9706"/>
<path d="M9 62.0089C10.1046 62.0089 11 61.1134 11 60.0089C11 58.9043 10.1046 58.0089 9 58.0089C7.89543 58.0089 7 58.9043 7 60.0089C7 61.1134 7.89543 62.0089 9 62.0089Z" fill="white"/>
<path d="M45 36.0089H33V38.0089H45V36.0089Z" fill="#00AAA8"/>
<path d="M41 36.0089H37V30.0089C37 29.4784 37.2107 28.9697 37.5858 28.5946C37.9609 28.2196 38.4696 28.0089 39 28.0089C39.5304 28.0089 40.0391 28.2196 40.4142 28.5946C40.7893 28.9697 41 29.4784 41 30.0089V36.0089Z" fill="#50D9D7"/>
<path d="M41 36.0089H37V38.0089H41V36.0089Z" fill="#00BEBD"/>
<path d="M52 41.0089C52 41.8045 51.6839 42.5676 51.1213 43.1302C50.5587 43.6928 49.7956 44.0089 49 44.0089H37C36.7348 44.0089 36.4804 43.9035 36.2929 43.716C36.1054 43.5284 36 43.2741 36 43.0089C36 42.7436 36.1054 42.4893 36.2929 42.3017C36.4804 42.1142 36.7348 42.0089 37 42.0089H51C51.2652 42.0089 51.5196 41.9035 51.7071 41.716C51.8946 41.5284 52 41.2741 52 41.0089Z" fill="#EA9706"/>
<path d="M51 47.0089C51 47.8045 50.6839 48.5676 50.1213 49.1302C49.5587 49.6928 48.7956 50.0089 48 50.0089H38C37.7348 50.0089 37.4804 49.9035 37.2929 49.716C37.1054 49.5284 37 49.2741 37 49.0089C37 48.7436 37.1054 48.4893 37.2929 48.3017C37.4804 48.1142 37.7348 48.0089 38 48.0089H50C50.2652 48.0089 50.5196 47.9035 50.7071 47.716C50.8946 47.5284 51 47.2741 51 47.0089Z" fill="#EA9706"/>
<path d="M49 53.0089C49 53.8045 48.6839 54.5676 48.1213 55.1302C47.5587 55.6928 46.7956 56.0089 46 56.0089H38C37.7348 56.0089 37.4804 55.9035 37.2929 55.716C37.1054 55.5284 37 55.2741 37 55.0089C37 54.7436 37.1054 54.4893 37.2929 54.3017C37.4804 54.1142 37.7348 54.0089 38 54.0089H48C48.2652 54.0089 48.5196 53.9035 48.7071 53.716C48.8946 53.5284 49 53.2741 49 53.0089Z" fill="#EA9706"/>
</svg>
